G04 #@! TF.FileFunction,Copper,L1,Top,Signal*
%FSLAX46Y46*%
G04 Gerber Fmt 4.6, Leading zero omitted, Abs format (unit mm)*
G04 Created by KiCad (PCBNEW 4.0.6) date Sat Aug  5 17:49:28 2017*
%MOMM*%
%LPD*%
G01*
G04 APERTURE LIST*
%ADD10C,0.100000*%
%ADD11R,1.300000X1.500000*%
%ADD12R,1.727200X2.032000*%
%ADD13O,1.727200X2.032000*%
%ADD14R,2.500000X3.200000*%
%ADD15R,1.700000X1.700000*%
%ADD16O,1.700000X1.700000*%
%ADD17R,1.900000X0.800000*%
%ADD18R,1.500000X1.300000*%
%ADD19R,2.000000X3.800000*%
%ADD20R,2.000000X1.500000*%
%ADD21R,2.000000X5.000000*%
%ADD22R,1.100000X2.500000*%
%ADD23R,2.500000X1.100000*%
%ADD24C,0.600000*%
%ADD25C,0.508000*%
%ADD26C,0.254000*%
G04 APERTURE END LIST*
D10*
D11*
X95631000Y-121840000D03*
X95631000Y-124540000D03*
D12*
X82804000Y-110998000D03*
D13*
X85344000Y-110998000D03*
X87884000Y-110998000D03*
X90424000Y-110998000D03*
D14*
X92710000Y-137532000D03*
X92710000Y-133232000D03*
D15*
X107950000Y-124206000D03*
D16*
X107950000Y-121666000D03*
X107950000Y-119126000D03*
X107950000Y-116586000D03*
D15*
X107950000Y-131318000D03*
D16*
X107950000Y-128778000D03*
D17*
X97941000Y-111699000D03*
X97941000Y-113599000D03*
X100941000Y-112649000D03*
X97941000Y-116906000D03*
X97941000Y-118806000D03*
X100941000Y-117856000D03*
X97941000Y-122240000D03*
X97941000Y-124140000D03*
X100941000Y-123190000D03*
X97941000Y-127955000D03*
X97941000Y-129855000D03*
X100941000Y-128905000D03*
D11*
X95631000Y-111299000D03*
X95631000Y-113999000D03*
X103251000Y-111299000D03*
X103251000Y-113999000D03*
X95631000Y-116506000D03*
X95631000Y-119206000D03*
X103251000Y-116506000D03*
X103251000Y-119206000D03*
X95631000Y-127555000D03*
X95631000Y-130255000D03*
X103251000Y-121840000D03*
X103251000Y-124540000D03*
X103251000Y-127555000D03*
X103251000Y-130255000D03*
X107696000Y-135556000D03*
X107696000Y-138256000D03*
D18*
X68420000Y-114300000D03*
X71120000Y-114300000D03*
D11*
X67995800Y-136013200D03*
X67995800Y-138713200D03*
D19*
X103226000Y-135382000D03*
D20*
X96926000Y-135382000D03*
X96926000Y-137682000D03*
X96926000Y-133082000D03*
D21*
X108215000Y-143360000D03*
X104255000Y-143360000D03*
X100295000Y-143360000D03*
X96335000Y-143360000D03*
X92375000Y-143360000D03*
X88415000Y-143360000D03*
X84455000Y-143360000D03*
X80495000Y-143360000D03*
X76535000Y-143360000D03*
X72575000Y-143360000D03*
X68615000Y-143360000D03*
X64655000Y-143360000D03*
D17*
X70305800Y-136413200D03*
X70305800Y-138313200D03*
X73305800Y-137363200D03*
D11*
X75615800Y-136013200D03*
X75615800Y-138713200D03*
D22*
X72136000Y-133034000D03*
X74136000Y-133034000D03*
X76136000Y-133034000D03*
X78136000Y-133034000D03*
X80136000Y-133034000D03*
X82136000Y-133034000D03*
X84136000Y-133034000D03*
X86136000Y-133034000D03*
X86136000Y-117634000D03*
X84136000Y-117634000D03*
X82136000Y-117634000D03*
X80136000Y-117634000D03*
X78136000Y-117634000D03*
X76136000Y-117634000D03*
X74136000Y-117634000D03*
X72136000Y-117634000D03*
D23*
X87836000Y-130344000D03*
X87836000Y-128344000D03*
X87836000Y-126344000D03*
X87836000Y-124344000D03*
X87836000Y-122344000D03*
X87836000Y-120344000D03*
D24*
X106426000Y-139039600D03*
X104540006Y-137500000D03*
X98720000Y-135380000D03*
X100990000Y-135380000D03*
X69773800Y-130124200D03*
X91186000Y-130352800D03*
X64660000Y-139550000D03*
X90500000Y-141010000D03*
X70220000Y-140300000D03*
X87119628Y-136782266D03*
X86033974Y-138386027D03*
X86050000Y-141780000D03*
X105660000Y-140410000D03*
X86859970Y-141057839D03*
X88442800Y-133426200D03*
X94970600Y-137668000D03*
X104572968Y-127570000D03*
X104572968Y-131590000D03*
X98558990Y-137650000D03*
X104600000Y-140160000D03*
X104600000Y-121840000D03*
X104600000Y-119560000D03*
X104610000Y-116500000D03*
X98600000Y-139610008D03*
X78760000Y-139610000D03*
X98440000Y-120110000D03*
X97940000Y-115090000D03*
X82245200Y-120700800D03*
X107700000Y-133339994D03*
X83439000Y-127762000D03*
X84150200Y-125298200D03*
X83540600Y-138709400D03*
X78206600Y-123469400D03*
X82118200Y-119608600D03*
D25*
X76136000Y-132334000D02*
X75077999Y-131275999D01*
X75077999Y-131275999D02*
X71179599Y-131275999D01*
X71077999Y-131377599D02*
X71077999Y-134733001D01*
X71077999Y-134733001D02*
X70305800Y-135505200D01*
X70305800Y-135505200D02*
X70305800Y-136413200D01*
X71179599Y-131275999D02*
X71077999Y-131377599D01*
X106850264Y-139039600D02*
X106426000Y-139039600D01*
X107696000Y-138256000D02*
X106912400Y-139039600D01*
X106912400Y-139039600D02*
X106850264Y-139039600D01*
X89664042Y-132334000D02*
X86136000Y-132334000D01*
X90292201Y-132962159D02*
X89664042Y-132334000D01*
X90292202Y-134764202D02*
X90292201Y-132962159D01*
X92710000Y-137182000D02*
X90292202Y-134764202D01*
X92710000Y-137532000D02*
X92710000Y-137182000D01*
X86136000Y-132334000D02*
X86136000Y-133748402D01*
X86136000Y-133748402D02*
X85092401Y-134792001D01*
X85092401Y-134792001D02*
X77179599Y-134792001D01*
X77179599Y-134792001D02*
X76136000Y-133748402D01*
X76136000Y-133748402D02*
X76136000Y-132334000D01*
X67995800Y-136013200D02*
X68271400Y-136013200D01*
X68271400Y-136013200D02*
X68671400Y-136413200D01*
X68671400Y-136413200D02*
X70305800Y-136413200D01*
X103226000Y-135382000D02*
X103226000Y-136185994D01*
X103226000Y-136185994D02*
X104240007Y-137200001D01*
X104240007Y-137200001D02*
X104540006Y-137500000D01*
X103226000Y-135382000D02*
X100992000Y-135382000D01*
X100992000Y-135382000D02*
X100990000Y-135380000D01*
D26*
X86136000Y-133976000D02*
X86136000Y-132334000D01*
X76136000Y-132334000D02*
X76136000Y-133936000D01*
X86136000Y-133944000D02*
X86136000Y-132334000D01*
D25*
X85344000Y-110998000D02*
X85344000Y-111150400D01*
X85344000Y-111150400D02*
X86893600Y-112700000D01*
X86893600Y-112700000D02*
X93072000Y-112700000D01*
X93072000Y-112700000D02*
X94473000Y-111299000D01*
X94473000Y-111299000D02*
X95631000Y-111299000D01*
X85344000Y-110998000D02*
X85344000Y-110845600D01*
X85344000Y-110845600D02*
X85210000Y-110979600D01*
X85210000Y-110979600D02*
X85210000Y-111540000D01*
X99440000Y-127950000D02*
X99440000Y-134660000D01*
X99440000Y-134660000D02*
X98720000Y-135380000D01*
X98720000Y-135380000D02*
X97178000Y-135380000D01*
X97178000Y-135380000D02*
X97176000Y-135382000D01*
X97176000Y-135382000D02*
X96926000Y-135382000D01*
X99440000Y-116880000D02*
X99440000Y-119574156D01*
X99440000Y-119574156D02*
X99440000Y-122270000D01*
X99440000Y-112648000D02*
X99440000Y-116880000D01*
X97941000Y-116906000D02*
X99414000Y-116906000D01*
X99414000Y-116906000D02*
X99440000Y-116880000D01*
X99440000Y-122270000D02*
X99440000Y-127950000D01*
X97941000Y-122240000D02*
X99399000Y-122240000D01*
X99399000Y-122240000D02*
X99429000Y-122270000D01*
X99429000Y-122270000D02*
X99440000Y-122270000D01*
X97941000Y-127955000D02*
X99435000Y-127955000D01*
X99435000Y-127955000D02*
X99440000Y-127950000D01*
X97941000Y-111699000D02*
X98491000Y-111699000D01*
X98491000Y-111699000D02*
X99440000Y-112648000D01*
X97941000Y-111699000D02*
X96031000Y-111699000D01*
X96031000Y-111699000D02*
X95631000Y-111299000D01*
X97941000Y-116906000D02*
X96031000Y-116906000D01*
X96031000Y-116906000D02*
X95631000Y-116506000D01*
X97941000Y-122240000D02*
X96031000Y-122240000D01*
X96031000Y-122240000D02*
X95631000Y-121840000D01*
X97941000Y-127955000D02*
X96031000Y-127955000D01*
X96031000Y-127955000D02*
X95631000Y-127555000D01*
X96926000Y-135382000D02*
X96676000Y-135382000D01*
X96676000Y-135382000D02*
X96674000Y-135380000D01*
X96674000Y-135380000D02*
X94512000Y-135380000D01*
X94512000Y-135380000D02*
X92710000Y-137182000D01*
X69748400Y-130124200D02*
X69748400Y-122224800D01*
X69748400Y-122224800D02*
X69748400Y-115773200D01*
X86077999Y-118976201D02*
X82829400Y-122224800D01*
X82829400Y-122224800D02*
X69748400Y-122224800D01*
X86136000Y-118334000D02*
X86077999Y-118392001D01*
X86077999Y-118392001D02*
X86077999Y-118976201D01*
X92710000Y-133232000D02*
X92710000Y-131876800D01*
X92710000Y-131876800D02*
X91186000Y-130352800D01*
X69773800Y-130124200D02*
X69748400Y-130124200D01*
X69748400Y-130124200D02*
X69773800Y-130124200D01*
X69773800Y-130124200D02*
X69748400Y-130124200D01*
X82804000Y-110998000D02*
X71722000Y-110998000D01*
X71722000Y-110998000D02*
X68420000Y-114300000D01*
X66777969Y-134247188D02*
X69333812Y-134247188D01*
X69333812Y-134247188D02*
X69748400Y-133832600D01*
X64660000Y-138565400D02*
X66329788Y-136895612D01*
X66329788Y-134695369D02*
X66777969Y-134247188D01*
X69748400Y-115773200D02*
X68402200Y-114427000D01*
X64660000Y-139550000D02*
X64660000Y-138565400D01*
X66329788Y-136895612D02*
X66329788Y-134695369D01*
X69748400Y-133832600D02*
X69748400Y-130124200D01*
X96926000Y-133082000D02*
X92860000Y-133082000D01*
X92860000Y-133082000D02*
X92710000Y-133232000D01*
D26*
X92375000Y-143360000D02*
X91121000Y-143360000D01*
X91121000Y-143360000D02*
X90500000Y-142739000D01*
X90500000Y-142739000D02*
X90500000Y-141010000D01*
X103251000Y-119206000D02*
X103251000Y-119306000D01*
X105761989Y-121816989D02*
X105761989Y-137994331D01*
X103251000Y-119306000D02*
X105761989Y-121816989D01*
X105761989Y-137994331D02*
X103456320Y-140300000D01*
X103456320Y-140300000D02*
X70644264Y-140300000D01*
X70644264Y-140300000D02*
X70220000Y-140300000D01*
X100941000Y-117856000D02*
X101491000Y-117856000D01*
X101491000Y-117856000D02*
X102841000Y-119206000D01*
X102841000Y-119206000D02*
X103251000Y-119206000D01*
X86033974Y-137961763D02*
X86033974Y-138386027D01*
X87119628Y-136782266D02*
X86033974Y-137867920D01*
X86033974Y-137867920D02*
X86033974Y-137961763D01*
X85709000Y-143360000D02*
X86050000Y-143019000D01*
X86050000Y-142204264D02*
X86050000Y-141780000D01*
X86050000Y-143019000D02*
X86050000Y-142204264D01*
X84455000Y-143360000D02*
X85709000Y-143360000D01*
X103251000Y-114099000D02*
X106279999Y-117127999D01*
X106279999Y-117127999D02*
X106279999Y-138194757D01*
X105660000Y-139985736D02*
X105660000Y-140410000D01*
X106279999Y-138194757D02*
X105660000Y-138814756D01*
X105660000Y-138814756D02*
X105660000Y-139985736D01*
X103251000Y-113999000D02*
X103251000Y-114099000D01*
X100941000Y-112649000D02*
X101491000Y-112649000D01*
X101491000Y-112649000D02*
X102841000Y-113999000D01*
X102841000Y-113999000D02*
X103251000Y-113999000D01*
X86859970Y-141482103D02*
X86859970Y-141057839D01*
X86859970Y-143058970D02*
X86859970Y-141482103D01*
X88415000Y-143360000D02*
X87161000Y-143360000D01*
X87161000Y-143360000D02*
X86859970Y-143058970D01*
D25*
X88142801Y-133726199D02*
X88442800Y-133426200D01*
X85855800Y-136013200D02*
X88142801Y-133726199D01*
X75615800Y-136013200D02*
X85855800Y-136013200D01*
X94970600Y-137668000D02*
X96912000Y-137668000D01*
X96912000Y-137668000D02*
X96926000Y-137682000D01*
X103251000Y-127555000D02*
X104557968Y-127555000D01*
X104557968Y-127555000D02*
X104572968Y-127570000D01*
X104572968Y-127570000D02*
X104572968Y-127994264D01*
X104572968Y-127994264D02*
X104572968Y-131590000D01*
X96926000Y-137682000D02*
X98526990Y-137682000D01*
X98526990Y-137682000D02*
X98558990Y-137650000D01*
X104600000Y-140160000D02*
X104600000Y-143015000D01*
X104600000Y-143015000D02*
X104255000Y-143360000D01*
X103251000Y-121840000D02*
X104600000Y-121840000D01*
X104610000Y-116500000D02*
X104610000Y-119550000D01*
X104610000Y-119550000D02*
X104600000Y-119560000D01*
X103251000Y-116506000D02*
X104604000Y-116506000D01*
X104604000Y-116506000D02*
X104610000Y-116500000D01*
X104520000Y-143095000D02*
X104255000Y-143360000D01*
X103256000Y-127560000D02*
X103251000Y-127555000D01*
X103251000Y-111299000D02*
X106759000Y-111299000D01*
X106759000Y-111299000D02*
X107950000Y-112490000D01*
X107950000Y-112490000D02*
X107950000Y-115383919D01*
X107950000Y-115383919D02*
X107950000Y-116586000D01*
D26*
X99024264Y-139610008D02*
X98600000Y-139610008D01*
X105253978Y-137783906D02*
X103427876Y-139610008D01*
X103251000Y-124540000D02*
X103251000Y-124640000D01*
X103251000Y-124640000D02*
X105253978Y-126642978D01*
X105253978Y-126642978D02*
X105253978Y-137783906D01*
X103427876Y-139610008D02*
X99024264Y-139610008D01*
X100941000Y-123190000D02*
X101491000Y-123190000D01*
X101491000Y-123190000D02*
X102841000Y-124540000D01*
X102841000Y-124540000D02*
X103251000Y-124540000D01*
X78760000Y-139610000D02*
X95310000Y-139610000D01*
X95310000Y-139610000D02*
X95320000Y-139620000D01*
X102980000Y-130620000D02*
X102980000Y-130590000D01*
X95320000Y-139620000D02*
X96126999Y-138813001D01*
X96126999Y-138813001D02*
X99546999Y-138813001D01*
X99546999Y-138813001D02*
X100100000Y-138260000D01*
X100100000Y-138260000D02*
X100100000Y-133500000D01*
X100100000Y-133500000D02*
X102980000Y-130620000D01*
X102980000Y-130590000D02*
X103251000Y-130319000D01*
X103251000Y-130319000D02*
X103251000Y-130255000D01*
X100941000Y-128905000D02*
X101491000Y-128905000D01*
X101491000Y-128905000D02*
X102841000Y-130255000D01*
X102841000Y-130255000D02*
X103251000Y-130255000D01*
X86942979Y-114232979D02*
X91916000Y-119206000D01*
X76687021Y-114232979D02*
X86942979Y-114232979D01*
X91916000Y-119206000D02*
X94727000Y-119206000D01*
X74136000Y-116784000D02*
X76687021Y-114232979D01*
X94727000Y-119206000D02*
X95631000Y-119206000D01*
X74136000Y-118334000D02*
X74136000Y-116784000D01*
X98140001Y-119810001D02*
X98440000Y-120110000D01*
X97941000Y-118806000D02*
X97941000Y-119611000D01*
X97941000Y-119611000D02*
X98140001Y-119810001D01*
X97941000Y-118806000D02*
X96031000Y-118806000D01*
X96031000Y-118806000D02*
X95631000Y-119206000D01*
X72136000Y-118334000D02*
X72136000Y-116654000D01*
X72136000Y-116654000D02*
X75065031Y-113724969D01*
X75065031Y-113724969D02*
X94452969Y-113724969D01*
X94452969Y-113724969D02*
X94727000Y-113999000D01*
X94727000Y-113999000D02*
X95631000Y-113999000D01*
X97941000Y-113599000D02*
X97941000Y-115089000D01*
X97941000Y-115089000D02*
X97940000Y-115090000D01*
X97941000Y-113599000D02*
X96031000Y-113599000D01*
X96031000Y-113599000D02*
X95631000Y-113999000D01*
X80136000Y-118334000D02*
X80136000Y-118591600D01*
X80136000Y-118591600D02*
X81945201Y-120400801D01*
X81945201Y-120400801D02*
X82245200Y-120700800D01*
X107696000Y-133343994D02*
X107700000Y-133339994D01*
X107696000Y-135556000D02*
X107696000Y-133343994D01*
X90210000Y-119019000D02*
X95631000Y-124440000D01*
X90210000Y-118218436D02*
X90210000Y-119019000D01*
X86732553Y-114740989D02*
X90210000Y-118218436D01*
X95631000Y-124440000D02*
X95631000Y-124540000D01*
X78179012Y-114740988D02*
X86732553Y-114740989D01*
X76136000Y-116784000D02*
X78179012Y-114740988D01*
X76136000Y-118334000D02*
X76136000Y-116784000D01*
X97941000Y-124140000D02*
X96031000Y-124140000D01*
X96031000Y-124140000D02*
X95631000Y-124540000D01*
X79681001Y-115248999D02*
X86522127Y-115248999D01*
X89700000Y-124224000D02*
X95631000Y-130155000D01*
X86522127Y-115248999D02*
X89700000Y-118426872D01*
X78136000Y-118334000D02*
X78136000Y-116794000D01*
X78136000Y-116794000D02*
X79681001Y-115248999D01*
X89700000Y-118426872D02*
X89700000Y-124224000D01*
X95631000Y-130155000D02*
X95631000Y-130255000D01*
X97941000Y-129855000D02*
X96031000Y-129855000D01*
X96031000Y-129855000D02*
X95631000Y-130255000D01*
X84136000Y-118334000D02*
X84136000Y-119817882D01*
X70810000Y-115824000D02*
X71120000Y-115514000D01*
X84136000Y-119817882D02*
X82567282Y-121386600D01*
X82567282Y-121386600D02*
X73402798Y-121386600D01*
X73402798Y-121386600D02*
X70810000Y-118793802D01*
X70810000Y-118793802D02*
X70810000Y-115824000D01*
X71120000Y-115514000D02*
X71120000Y-115204000D01*
X71120000Y-115204000D02*
X71120000Y-114300000D01*
X80136000Y-131065000D02*
X83139001Y-128061999D01*
X83139001Y-128061999D02*
X83439000Y-127762000D01*
X80136000Y-132334000D02*
X80136000Y-131065000D01*
X90424000Y-110998000D02*
X90424000Y-110845600D01*
X84150200Y-125298200D02*
X84150200Y-125722464D01*
X84150200Y-125722464D02*
X84136000Y-125736664D01*
X84136000Y-125736664D02*
X84136000Y-132334000D01*
X75615800Y-138713200D02*
X83536800Y-138713200D01*
X83536800Y-138713200D02*
X83540600Y-138709400D01*
X73305800Y-137363200D02*
X73710800Y-137363200D01*
X73710800Y-137363200D02*
X75060800Y-138713200D01*
X75060800Y-138713200D02*
X75615800Y-138713200D01*
X70442989Y-134036052D02*
X70442989Y-130808747D01*
X69596842Y-134882199D02*
X70442989Y-134036052D01*
X67040999Y-134882199D02*
X69596842Y-134882199D01*
X66964799Y-134958399D02*
X67040999Y-134882199D01*
X77782336Y-123469400D02*
X78206600Y-123469400D01*
X66964799Y-137582199D02*
X66964799Y-134958399D01*
X67995800Y-138613200D02*
X66964799Y-137582199D01*
X67995800Y-138713200D02*
X67995800Y-138613200D01*
X70442989Y-130808747D02*
X77782336Y-123469400D01*
X82118200Y-119608600D02*
X82118200Y-118351800D01*
X82118200Y-118351800D02*
X82136000Y-118334000D01*
X67995800Y-138713200D02*
X68322200Y-138713200D01*
X68322200Y-138713200D02*
X68722200Y-138313200D01*
X68722200Y-138313200D02*
X70305800Y-138313200D01*
X82570001Y-117899999D02*
X82136000Y-118334000D01*
M02*
