G04 #@! TF.FileFunction,Copper,L2,Bot,Signal*
%FSLAX46Y46*%
G04 Gerber Fmt 4.6, Leading zero omitted, Abs format (unit mm)*
G04 Created by KiCad (PCBNEW 4.0.6) date Sat Aug  5 17:49:28 2017*
%MOMM*%
%LPD*%
G01*
G04 APERTURE LIST*
%ADD10C,0.100000*%
%ADD11R,1.727200X2.032000*%
%ADD12O,1.727200X2.032000*%
%ADD13R,0.970000X1.270000*%
%ADD14R,1.700000X1.700000*%
%ADD15O,1.700000X1.700000*%
%ADD16R,2.000000X5.000000*%
%ADD17C,0.600000*%
%ADD18C,0.508000*%
%ADD19C,0.254000*%
G04 APERTURE END LIST*
D10*
D11*
X82804000Y-110998000D03*
D12*
X85344000Y-110998000D03*
X87884000Y-110998000D03*
X90424000Y-110998000D03*
D13*
X77475000Y-133985000D03*
X76195000Y-133985000D03*
X88240000Y-135255000D03*
X89520000Y-135255000D03*
X77475000Y-137160000D03*
X76195000Y-137160000D03*
D14*
X107950000Y-124206000D03*
D15*
X107950000Y-121666000D03*
X107950000Y-119126000D03*
X107950000Y-116586000D03*
D14*
X107950000Y-131318000D03*
D15*
X107950000Y-128778000D03*
D16*
X108215000Y-143360000D03*
X104255000Y-143360000D03*
X100295000Y-143360000D03*
X96335000Y-143360000D03*
X92375000Y-143360000D03*
X88415000Y-143360000D03*
X84455000Y-143360000D03*
X80495000Y-143360000D03*
X76535000Y-143360000D03*
X72575000Y-143360000D03*
X68615000Y-143360000D03*
X64655000Y-143360000D03*
D17*
X106426000Y-139039600D03*
X104540006Y-137500000D03*
X98720000Y-135380000D03*
X100990000Y-135380000D03*
X69773800Y-130124200D03*
X91186000Y-130352800D03*
X64660000Y-139550000D03*
X90500000Y-141010000D03*
X70220000Y-140300000D03*
X87119628Y-136782266D03*
X86033974Y-138386027D03*
X86050000Y-141780000D03*
X105660000Y-140410000D03*
X86859970Y-141057839D03*
X88442800Y-133426200D03*
X94970600Y-137668000D03*
X104572968Y-127570000D03*
X104572968Y-131590000D03*
X98558990Y-137650000D03*
X104600000Y-140160000D03*
X104600000Y-121840000D03*
X104600000Y-119560000D03*
X104610000Y-116500000D03*
X98600000Y-139610008D03*
X78760000Y-139610000D03*
X98440000Y-120110000D03*
X97940000Y-115090000D03*
X82245200Y-120700800D03*
X107700000Y-133339994D03*
X83439000Y-127762000D03*
X84150200Y-125298200D03*
X83540600Y-138709400D03*
X78206600Y-123469400D03*
X82118200Y-119608600D03*
D18*
X106079606Y-139039600D02*
X106426000Y-139039600D01*
X104540006Y-137500000D02*
X106079606Y-139039600D01*
X100990000Y-135380000D02*
X98720000Y-135380000D01*
X90957400Y-130124200D02*
X69773800Y-130124200D01*
X91186000Y-130352800D02*
X90957400Y-130124200D01*
X107950000Y-124206000D02*
X108305600Y-124206000D01*
X108305600Y-124206000D02*
X109372400Y-123139200D01*
X84582000Y-109220000D02*
X82804000Y-110998000D01*
X107086400Y-109220000D02*
X84582000Y-109220000D01*
X109372400Y-111506000D02*
X107086400Y-109220000D01*
X109372400Y-123139200D02*
X109372400Y-111506000D01*
X107950000Y-131318000D02*
X107975400Y-131318000D01*
X107975400Y-131318000D02*
X109372400Y-129921000D01*
X109372400Y-125628400D02*
X107950000Y-124206000D01*
X109372400Y-129921000D02*
X109372400Y-125628400D01*
X107950000Y-131318000D02*
X107950000Y-131826000D01*
X107950000Y-131826000D02*
X108966000Y-132842000D01*
X108966000Y-132842000D02*
X108966000Y-142609000D01*
X108966000Y-142609000D02*
X108215000Y-143360000D01*
X82804000Y-110998000D02*
X82804000Y-110845600D01*
X64655000Y-143360000D02*
X64655000Y-139555000D01*
X64655000Y-139555000D02*
X64660000Y-139550000D01*
X108610000Y-141200000D02*
X108610000Y-142965000D01*
X108610000Y-142965000D02*
X108215000Y-143360000D01*
X107950000Y-124206000D02*
X108206000Y-124206000D01*
D19*
X83314478Y-133985000D02*
X78214000Y-133985000D01*
X78214000Y-133985000D02*
X77475000Y-133985000D01*
X90039479Y-140710001D02*
X83314478Y-133985000D01*
X90200001Y-140710001D02*
X90039479Y-140710001D01*
X90500000Y-141010000D02*
X90200001Y-140710001D01*
X70220000Y-140300000D02*
X76195000Y-134325000D01*
X76195000Y-134325000D02*
X76195000Y-133985000D01*
X68615000Y-141860000D02*
X70175000Y-140300000D01*
X68615000Y-143360000D02*
X68615000Y-141860000D01*
X70175000Y-140300000D02*
X70220000Y-140300000D01*
X87119628Y-136525372D02*
X87119628Y-136782266D01*
X86050000Y-138402053D02*
X86033974Y-138386027D01*
X88240000Y-135405000D02*
X87119628Y-136525372D01*
X88240000Y-135255000D02*
X88240000Y-135405000D01*
X86050000Y-141780000D02*
X86050000Y-138402053D01*
X104255000Y-143360000D02*
X103001000Y-143360000D01*
X103001000Y-143360000D02*
X100295000Y-143360000D01*
X100295000Y-143360000D02*
X100295000Y-139345000D01*
X100295000Y-139345000D02*
X99878998Y-138928998D01*
X99878998Y-138928998D02*
X93178998Y-138928998D01*
X93178998Y-138928998D02*
X89520000Y-135270000D01*
X89520000Y-135270000D02*
X89520000Y-135255000D01*
X105660000Y-140455000D02*
X105660000Y-140410000D01*
X104255000Y-141860000D02*
X105660000Y-140455000D01*
X104255000Y-143360000D02*
X104255000Y-141860000D01*
X86859970Y-140633575D02*
X86859970Y-141057839D01*
X86859970Y-138248928D02*
X86859970Y-140633575D01*
X85771042Y-137160000D02*
X86859970Y-138248928D01*
X77475000Y-137160000D02*
X85771042Y-137160000D01*
X76195000Y-137160000D02*
X76195000Y-138240000D01*
X72575000Y-143360000D02*
X72575000Y-141860000D01*
X72575000Y-141860000D02*
X76195000Y-138240000D01*
D18*
X88867064Y-133426200D02*
X88442800Y-133426200D01*
X94970600Y-137668000D02*
X90728800Y-133426200D01*
X90728800Y-133426200D02*
X88867064Y-133426200D01*
X102090000Y-137650000D02*
X102090000Y-134072968D01*
X104600000Y-127542968D02*
X104572968Y-127570000D01*
X104272969Y-131889999D02*
X104572968Y-131590000D01*
X104600000Y-121840000D02*
X104600000Y-127542968D01*
X102090000Y-134072968D02*
X104272969Y-131889999D01*
X102090000Y-137650000D02*
X98983254Y-137650000D01*
X104600000Y-140160000D02*
X102090000Y-137650000D01*
X98983254Y-137650000D02*
X98558990Y-137650000D01*
X104600000Y-119560000D02*
X104600000Y-121840000D01*
X104610000Y-116500000D02*
X107864000Y-116500000D01*
X107864000Y-116500000D02*
X107950000Y-116586000D01*
D19*
X98584992Y-139610008D02*
X98600000Y-139610008D01*
X96335000Y-143360000D02*
X96335000Y-141860000D01*
X96335000Y-141860000D02*
X98584992Y-139610008D01*
X92375000Y-143360000D02*
X92375000Y-141860000D01*
X78760000Y-139635000D02*
X78760000Y-139610000D01*
X76535000Y-141860000D02*
X78760000Y-139635000D01*
X76535000Y-143360000D02*
X76535000Y-141860000D01*
X107950000Y-121666000D02*
X104354000Y-118070000D01*
X104354000Y-118070000D02*
X100904264Y-118070000D01*
X100904264Y-118070000D02*
X98864264Y-120110000D01*
X98864264Y-120110000D02*
X98440000Y-120110000D01*
X97940000Y-115090000D02*
X98690000Y-115840000D01*
X106274000Y-117450000D02*
X107950000Y-119126000D01*
X98690000Y-115840000D02*
X101740000Y-115840000D01*
X101740000Y-115840000D02*
X103350000Y-117450000D01*
X103350000Y-117450000D02*
X106274000Y-117450000D01*
X107950000Y-128778000D02*
X83210400Y-128778000D01*
X82545199Y-121000799D02*
X82245200Y-120700800D01*
X83210400Y-128778000D02*
X82545199Y-128112799D01*
X82545199Y-128112799D02*
X82545199Y-121000799D01*
X107400001Y-133039995D02*
X107700000Y-133339994D01*
X107950000Y-128778000D02*
X106470000Y-130258000D01*
X106470000Y-130258000D02*
X106470000Y-132109994D01*
X106470000Y-132109994D02*
X107400001Y-133039995D01*
X83738999Y-127462001D02*
X83439000Y-127762000D01*
X90424000Y-120777000D02*
X83738999Y-127462001D01*
X90424000Y-110998000D02*
X90424000Y-120777000D01*
X87884000Y-110998000D02*
X87884000Y-121564400D01*
X87884000Y-121564400D02*
X84150200Y-125298200D01*
X87884000Y-110998000D02*
X87832000Y-110998000D01*
X83540600Y-138709400D02*
X84455000Y-139623800D01*
X84455000Y-139623800D02*
X84455000Y-143360000D01*
X84455000Y-142163800D02*
X84455000Y-143360000D01*
X78257400Y-123469400D02*
X78206600Y-123469400D01*
X82118200Y-119608600D02*
X78257400Y-123469400D01*
G36*
X109145000Y-115709333D02*
X109029147Y-115535946D01*
X108547378Y-115214039D01*
X107979093Y-115101000D01*
X107920907Y-115101000D01*
X107352622Y-115214039D01*
X106870853Y-115535946D01*
X106820704Y-115611000D01*
X104907189Y-115611000D01*
X104796799Y-115565162D01*
X104424833Y-115564838D01*
X104081057Y-115706883D01*
X103817808Y-115969673D01*
X103675162Y-116313201D01*
X103674838Y-116685167D01*
X103676009Y-116688000D01*
X103665630Y-116688000D01*
X102278815Y-115301185D01*
X102148392Y-115214039D01*
X102031605Y-115136004D01*
X101740000Y-115078000D01*
X99005630Y-115078000D01*
X98875125Y-114947495D01*
X98875162Y-114904833D01*
X98733117Y-114561057D01*
X98470327Y-114297808D01*
X98126799Y-114155162D01*
X97754833Y-114154838D01*
X97411057Y-114296883D01*
X97147808Y-114559673D01*
X97005162Y-114903201D01*
X97004838Y-115275167D01*
X97146883Y-115618943D01*
X97409673Y-115882192D01*
X97753201Y-116024838D01*
X97797246Y-116024876D01*
X98151185Y-116378815D01*
X98398395Y-116543996D01*
X98690000Y-116602000D01*
X101424370Y-116602000D01*
X102130370Y-117308000D01*
X100904264Y-117308000D01*
X100612659Y-117366004D01*
X100550812Y-117407329D01*
X100365449Y-117531184D01*
X98693694Y-119202940D01*
X98626799Y-119175162D01*
X98254833Y-119174838D01*
X97911057Y-119316883D01*
X97647808Y-119579673D01*
X97505162Y-119923201D01*
X97504838Y-120295167D01*
X97646883Y-120638943D01*
X97909673Y-120902192D01*
X98253201Y-121044838D01*
X98625167Y-121045162D01*
X98968943Y-120903117D01*
X99033920Y-120838253D01*
X99155869Y-120813996D01*
X99403079Y-120648815D01*
X101219895Y-118832000D01*
X104005826Y-118832000D01*
X103807808Y-119029673D01*
X103665162Y-119373201D01*
X103664838Y-119745167D01*
X103711000Y-119856888D01*
X103711000Y-121542811D01*
X103665162Y-121653201D01*
X103664838Y-122025167D01*
X103711000Y-122136888D01*
X103711000Y-127207711D01*
X103638130Y-127383201D01*
X103637806Y-127755167D01*
X103745580Y-128016000D01*
X84345934Y-128016000D01*
X84373838Y-127948799D01*
X84373876Y-127904754D01*
X90962815Y-121315815D01*
X91127996Y-121068605D01*
X91132659Y-121045162D01*
X91186000Y-120777000D01*
X91186000Y-112441312D01*
X91483670Y-112242415D01*
X91808526Y-111756234D01*
X91922600Y-111182745D01*
X91922600Y-110813255D01*
X91808526Y-110239766D01*
X91483670Y-109753585D01*
X90997489Y-109428729D01*
X90424000Y-109314655D01*
X89850511Y-109428729D01*
X89364330Y-109753585D01*
X89154000Y-110068366D01*
X88943670Y-109753585D01*
X88457489Y-109428729D01*
X87884000Y-109314655D01*
X87310511Y-109428729D01*
X86824330Y-109753585D01*
X86614000Y-110068366D01*
X86403670Y-109753585D01*
X85917489Y-109428729D01*
X85344000Y-109314655D01*
X84770511Y-109428729D01*
X84284330Y-109753585D01*
X84269500Y-109775780D01*
X84205927Y-109622301D01*
X84027298Y-109443673D01*
X83793909Y-109347000D01*
X83089750Y-109347000D01*
X82931000Y-109505750D01*
X82931000Y-110871000D01*
X82951000Y-110871000D01*
X82951000Y-111125000D01*
X82931000Y-111125000D01*
X82931000Y-112490250D01*
X83089750Y-112649000D01*
X83793909Y-112649000D01*
X84027298Y-112552327D01*
X84205927Y-112373699D01*
X84269500Y-112220220D01*
X84284330Y-112242415D01*
X84770511Y-112567271D01*
X85344000Y-112681345D01*
X85917489Y-112567271D01*
X86403670Y-112242415D01*
X86614000Y-111927634D01*
X86824330Y-112242415D01*
X87122000Y-112441312D01*
X87122000Y-121248769D01*
X84007695Y-124363075D01*
X83965033Y-124363038D01*
X83621257Y-124505083D01*
X83358008Y-124767873D01*
X83307199Y-124890234D01*
X83307199Y-121000799D01*
X83249195Y-120709194D01*
X83183033Y-120610176D01*
X83180283Y-120606061D01*
X83180362Y-120515633D01*
X83038317Y-120171857D01*
X82938315Y-120071681D01*
X83053038Y-119795399D01*
X83053362Y-119423433D01*
X82911317Y-119079657D01*
X82648527Y-118816408D01*
X82304999Y-118673762D01*
X81933033Y-118673438D01*
X81589257Y-118815483D01*
X81326008Y-119078273D01*
X81183362Y-119421801D01*
X81183324Y-119465845D01*
X78114851Y-122534319D01*
X78021433Y-122534238D01*
X77677657Y-122676283D01*
X77414408Y-122939073D01*
X77271762Y-123282601D01*
X77271438Y-123654567D01*
X77413483Y-123998343D01*
X77676273Y-124261592D01*
X78019801Y-124404238D01*
X78391767Y-124404562D01*
X78735543Y-124262517D01*
X78998792Y-123999727D01*
X79136614Y-123667816D01*
X81513332Y-121291099D01*
X81714873Y-121492992D01*
X81783199Y-121521364D01*
X81783199Y-128112799D01*
X81841203Y-128404404D01*
X81941907Y-128555117D01*
X82006384Y-128651614D01*
X82671584Y-129316815D01*
X82918795Y-129481996D01*
X83210400Y-129540000D01*
X106110370Y-129540000D01*
X105931185Y-129719185D01*
X105766004Y-129966395D01*
X105708000Y-130258000D01*
X105708000Y-132109994D01*
X105766004Y-132401599D01*
X105920677Y-132633083D01*
X105931185Y-132648809D01*
X106764875Y-133482499D01*
X106764838Y-133525161D01*
X106906883Y-133868937D01*
X107169673Y-134132186D01*
X107513201Y-134274832D01*
X107885167Y-134275156D01*
X108228943Y-134133111D01*
X108492192Y-133870321D01*
X108634838Y-133526793D01*
X108635162Y-133154827D01*
X108493117Y-132811051D01*
X108485080Y-132803000D01*
X108926309Y-132803000D01*
X109145000Y-132712415D01*
X109145000Y-140225000D01*
X108500750Y-140225000D01*
X108342000Y-140383750D01*
X108342000Y-143233000D01*
X108362000Y-143233000D01*
X108362000Y-143487000D01*
X108342000Y-143487000D01*
X108342000Y-143507000D01*
X108088000Y-143507000D01*
X108088000Y-143487000D01*
X106738750Y-143487000D01*
X106580000Y-143645750D01*
X106580000Y-145340000D01*
X105902440Y-145340000D01*
X105902440Y-141321497D01*
X106188943Y-141203117D01*
X106452192Y-140940327D01*
X106537995Y-140733690D01*
X106580000Y-140733690D01*
X106580000Y-143074250D01*
X106738750Y-143233000D01*
X108088000Y-143233000D01*
X108088000Y-140383750D01*
X107929250Y-140225000D01*
X107088691Y-140225000D01*
X106855302Y-140321673D01*
X106676673Y-140500301D01*
X106580000Y-140733690D01*
X106537995Y-140733690D01*
X106594838Y-140596799D01*
X106595162Y-140224833D01*
X106491792Y-139974658D01*
X106611167Y-139974762D01*
X106954943Y-139832717D01*
X107218192Y-139569927D01*
X107360838Y-139226399D01*
X107361162Y-138854433D01*
X107219117Y-138510657D01*
X106956327Y-138247408D01*
X106612799Y-138104762D01*
X106401820Y-138104578D01*
X105378768Y-137081526D01*
X105333123Y-136971057D01*
X105070333Y-136707808D01*
X104726805Y-136565162D01*
X104354839Y-136564838D01*
X104011063Y-136706883D01*
X103747814Y-136969673D01*
X103605168Y-137313201D01*
X103604844Y-137685167D01*
X103746889Y-138028943D01*
X104009679Y-138292192D01*
X104121319Y-138338549D01*
X105321121Y-139538351D01*
X105306573Y-139544362D01*
X105130327Y-139367808D01*
X105018687Y-139321451D01*
X102979000Y-137281764D01*
X102979000Y-134441204D01*
X104991442Y-132428762D01*
X105101911Y-132383117D01*
X105365160Y-132120327D01*
X105507806Y-131776799D01*
X105508130Y-131404833D01*
X105366085Y-131061057D01*
X105103295Y-130797808D01*
X104759767Y-130655162D01*
X104387801Y-130654838D01*
X104044025Y-130796883D01*
X103780776Y-131059673D01*
X103734419Y-131171313D01*
X101461382Y-133444350D01*
X101268671Y-133732762D01*
X101201000Y-134072968D01*
X101201000Y-134455211D01*
X101176799Y-134445162D01*
X100804833Y-134444838D01*
X100693112Y-134491000D01*
X99017189Y-134491000D01*
X98906799Y-134445162D01*
X98534833Y-134444838D01*
X98191057Y-134586883D01*
X97927808Y-134849673D01*
X97785162Y-135193201D01*
X97784838Y-135565167D01*
X97926883Y-135908943D01*
X98189673Y-136172192D01*
X98533201Y-136314838D01*
X98905167Y-136315162D01*
X99016888Y-136269000D01*
X100692811Y-136269000D01*
X100803201Y-136314838D01*
X101175167Y-136315162D01*
X101201000Y-136304488D01*
X101201000Y-136761000D01*
X98856179Y-136761000D01*
X98745789Y-136715162D01*
X98373823Y-136714838D01*
X98030047Y-136856883D01*
X97766798Y-137119673D01*
X97624152Y-137463201D01*
X97623828Y-137835167D01*
X97760937Y-138166998D01*
X95775801Y-138166998D01*
X95905438Y-137854799D01*
X95905762Y-137482833D01*
X95763717Y-137139057D01*
X95500927Y-136875808D01*
X95389287Y-136829451D01*
X91357418Y-132797582D01*
X91291548Y-132753569D01*
X91069006Y-132604871D01*
X90728800Y-132537200D01*
X88739989Y-132537200D01*
X88629599Y-132491362D01*
X88257633Y-132491038D01*
X87913857Y-132633083D01*
X87650608Y-132895873D01*
X87507962Y-133239401D01*
X87507638Y-133611367D01*
X87649683Y-133955143D01*
X87680974Y-133986489D01*
X87519683Y-134016838D01*
X87303559Y-134155910D01*
X87158569Y-134368110D01*
X87107560Y-134620000D01*
X87107560Y-135459810D01*
X86580813Y-135986557D01*
X86555837Y-136023937D01*
X86493386Y-136086278D01*
X83853293Y-133446185D01*
X83850547Y-133444350D01*
X83606083Y-133281004D01*
X83314478Y-133223000D01*
X78583543Y-133223000D01*
X78563162Y-133114683D01*
X78424090Y-132898559D01*
X78211890Y-132753569D01*
X77960000Y-132702560D01*
X76990000Y-132702560D01*
X76829310Y-132732796D01*
X76680000Y-132702560D01*
X75710000Y-132702560D01*
X75474683Y-132746838D01*
X75258559Y-132885910D01*
X75113569Y-133098110D01*
X75062560Y-133350000D01*
X75062560Y-134379810D01*
X70077495Y-139364875D01*
X70034833Y-139364838D01*
X69691057Y-139506883D01*
X69427808Y-139769673D01*
X69285867Y-140111503D01*
X69184810Y-140212560D01*
X67615000Y-140212560D01*
X67379683Y-140256838D01*
X67163559Y-140395910D01*
X67018569Y-140608110D01*
X66967560Y-140860000D01*
X66967560Y-145340000D01*
X66290000Y-145340000D01*
X66290000Y-143645750D01*
X66131250Y-143487000D01*
X64782000Y-143487000D01*
X64782000Y-143507000D01*
X64528000Y-143507000D01*
X64528000Y-143487000D01*
X64508000Y-143487000D01*
X64508000Y-143233000D01*
X64528000Y-143233000D01*
X64528000Y-140383750D01*
X64782000Y-140383750D01*
X64782000Y-143233000D01*
X66131250Y-143233000D01*
X66290000Y-143074250D01*
X66290000Y-140733690D01*
X66193327Y-140500301D01*
X66014698Y-140321673D01*
X65781309Y-140225000D01*
X64940750Y-140225000D01*
X64782000Y-140383750D01*
X64528000Y-140383750D01*
X64369250Y-140225000D01*
X63575000Y-140225000D01*
X63575000Y-133477000D01*
X69215000Y-133477000D01*
X69261159Y-133468315D01*
X69303553Y-133441035D01*
X69331994Y-133399410D01*
X69342000Y-133350000D01*
X69342000Y-116840000D01*
X69333315Y-116793841D01*
X69306035Y-116751447D01*
X69264410Y-116723006D01*
X69215000Y-116713000D01*
X63575000Y-116713000D01*
X63575000Y-111283750D01*
X81305400Y-111283750D01*
X81305400Y-112140310D01*
X81402073Y-112373699D01*
X81580702Y-112552327D01*
X81814091Y-112649000D01*
X82518250Y-112649000D01*
X82677000Y-112490250D01*
X82677000Y-111125000D01*
X81464150Y-111125000D01*
X81305400Y-111283750D01*
X63575000Y-111283750D01*
X63575000Y-109855690D01*
X81305400Y-109855690D01*
X81305400Y-110712250D01*
X81464150Y-110871000D01*
X82677000Y-110871000D01*
X82677000Y-109505750D01*
X82518250Y-109347000D01*
X81814091Y-109347000D01*
X81580702Y-109443673D01*
X81402073Y-109622301D01*
X81305400Y-109855690D01*
X63575000Y-109855690D01*
X63575000Y-109295000D01*
X109145000Y-109295000D01*
X109145000Y-115709333D01*
X109145000Y-115709333D01*
G37*
X109145000Y-115709333D02*
X109029147Y-115535946D01*
X108547378Y-115214039D01*
X107979093Y-115101000D01*
X107920907Y-115101000D01*
X107352622Y-115214039D01*
X106870853Y-115535946D01*
X106820704Y-115611000D01*
X104907189Y-115611000D01*
X104796799Y-115565162D01*
X104424833Y-115564838D01*
X104081057Y-115706883D01*
X103817808Y-115969673D01*
X103675162Y-116313201D01*
X103674838Y-116685167D01*
X103676009Y-116688000D01*
X103665630Y-116688000D01*
X102278815Y-115301185D01*
X102148392Y-115214039D01*
X102031605Y-115136004D01*
X101740000Y-115078000D01*
X99005630Y-115078000D01*
X98875125Y-114947495D01*
X98875162Y-114904833D01*
X98733117Y-114561057D01*
X98470327Y-114297808D01*
X98126799Y-114155162D01*
X97754833Y-114154838D01*
X97411057Y-114296883D01*
X97147808Y-114559673D01*
X97005162Y-114903201D01*
X97004838Y-115275167D01*
X97146883Y-115618943D01*
X97409673Y-115882192D01*
X97753201Y-116024838D01*
X97797246Y-116024876D01*
X98151185Y-116378815D01*
X98398395Y-116543996D01*
X98690000Y-116602000D01*
X101424370Y-116602000D01*
X102130370Y-117308000D01*
X100904264Y-117308000D01*
X100612659Y-117366004D01*
X100550812Y-117407329D01*
X100365449Y-117531184D01*
X98693694Y-119202940D01*
X98626799Y-119175162D01*
X98254833Y-119174838D01*
X97911057Y-119316883D01*
X97647808Y-119579673D01*
X97505162Y-119923201D01*
X97504838Y-120295167D01*
X97646883Y-120638943D01*
X97909673Y-120902192D01*
X98253201Y-121044838D01*
X98625167Y-121045162D01*
X98968943Y-120903117D01*
X99033920Y-120838253D01*
X99155869Y-120813996D01*
X99403079Y-120648815D01*
X101219895Y-118832000D01*
X104005826Y-118832000D01*
X103807808Y-119029673D01*
X103665162Y-119373201D01*
X103664838Y-119745167D01*
X103711000Y-119856888D01*
X103711000Y-121542811D01*
X103665162Y-121653201D01*
X103664838Y-122025167D01*
X103711000Y-122136888D01*
X103711000Y-127207711D01*
X103638130Y-127383201D01*
X103637806Y-127755167D01*
X103745580Y-128016000D01*
X84345934Y-128016000D01*
X84373838Y-127948799D01*
X84373876Y-127904754D01*
X90962815Y-121315815D01*
X91127996Y-121068605D01*
X91132659Y-121045162D01*
X91186000Y-120777000D01*
X91186000Y-112441312D01*
X91483670Y-112242415D01*
X91808526Y-111756234D01*
X91922600Y-111182745D01*
X91922600Y-110813255D01*
X91808526Y-110239766D01*
X91483670Y-109753585D01*
X90997489Y-109428729D01*
X90424000Y-109314655D01*
X89850511Y-109428729D01*
X89364330Y-109753585D01*
X89154000Y-110068366D01*
X88943670Y-109753585D01*
X88457489Y-109428729D01*
X87884000Y-109314655D01*
X87310511Y-109428729D01*
X86824330Y-109753585D01*
X86614000Y-110068366D01*
X86403670Y-109753585D01*
X85917489Y-109428729D01*
X85344000Y-109314655D01*
X84770511Y-109428729D01*
X84284330Y-109753585D01*
X84269500Y-109775780D01*
X84205927Y-109622301D01*
X84027298Y-109443673D01*
X83793909Y-109347000D01*
X83089750Y-109347000D01*
X82931000Y-109505750D01*
X82931000Y-110871000D01*
X82951000Y-110871000D01*
X82951000Y-111125000D01*
X82931000Y-111125000D01*
X82931000Y-112490250D01*
X83089750Y-112649000D01*
X83793909Y-112649000D01*
X84027298Y-112552327D01*
X84205927Y-112373699D01*
X84269500Y-112220220D01*
X84284330Y-112242415D01*
X84770511Y-112567271D01*
X85344000Y-112681345D01*
X85917489Y-112567271D01*
X86403670Y-112242415D01*
X86614000Y-111927634D01*
X86824330Y-112242415D01*
X87122000Y-112441312D01*
X87122000Y-121248769D01*
X84007695Y-124363075D01*
X83965033Y-124363038D01*
X83621257Y-124505083D01*
X83358008Y-124767873D01*
X83307199Y-124890234D01*
X83307199Y-121000799D01*
X83249195Y-120709194D01*
X83183033Y-120610176D01*
X83180283Y-120606061D01*
X83180362Y-120515633D01*
X83038317Y-120171857D01*
X82938315Y-120071681D01*
X83053038Y-119795399D01*
X83053362Y-119423433D01*
X82911317Y-119079657D01*
X82648527Y-118816408D01*
X82304999Y-118673762D01*
X81933033Y-118673438D01*
X81589257Y-118815483D01*
X81326008Y-119078273D01*
X81183362Y-119421801D01*
X81183324Y-119465845D01*
X78114851Y-122534319D01*
X78021433Y-122534238D01*
X77677657Y-122676283D01*
X77414408Y-122939073D01*
X77271762Y-123282601D01*
X77271438Y-123654567D01*
X77413483Y-123998343D01*
X77676273Y-124261592D01*
X78019801Y-124404238D01*
X78391767Y-124404562D01*
X78735543Y-124262517D01*
X78998792Y-123999727D01*
X79136614Y-123667816D01*
X81513332Y-121291099D01*
X81714873Y-121492992D01*
X81783199Y-121521364D01*
X81783199Y-128112799D01*
X81841203Y-128404404D01*
X81941907Y-128555117D01*
X82006384Y-128651614D01*
X82671584Y-129316815D01*
X82918795Y-129481996D01*
X83210400Y-129540000D01*
X106110370Y-129540000D01*
X105931185Y-129719185D01*
X105766004Y-129966395D01*
X105708000Y-130258000D01*
X105708000Y-132109994D01*
X105766004Y-132401599D01*
X105920677Y-132633083D01*
X105931185Y-132648809D01*
X106764875Y-133482499D01*
X106764838Y-133525161D01*
X106906883Y-133868937D01*
X107169673Y-134132186D01*
X107513201Y-134274832D01*
X107885167Y-134275156D01*
X108228943Y-134133111D01*
X108492192Y-133870321D01*
X108634838Y-133526793D01*
X108635162Y-133154827D01*
X108493117Y-132811051D01*
X108485080Y-132803000D01*
X108926309Y-132803000D01*
X109145000Y-132712415D01*
X109145000Y-140225000D01*
X108500750Y-140225000D01*
X108342000Y-140383750D01*
X108342000Y-143233000D01*
X108362000Y-143233000D01*
X108362000Y-143487000D01*
X108342000Y-143487000D01*
X108342000Y-143507000D01*
X108088000Y-143507000D01*
X108088000Y-143487000D01*
X106738750Y-143487000D01*
X106580000Y-143645750D01*
X106580000Y-145340000D01*
X105902440Y-145340000D01*
X105902440Y-141321497D01*
X106188943Y-141203117D01*
X106452192Y-140940327D01*
X106537995Y-140733690D01*
X106580000Y-140733690D01*
X106580000Y-143074250D01*
X106738750Y-143233000D01*
X108088000Y-143233000D01*
X108088000Y-140383750D01*
X107929250Y-140225000D01*
X107088691Y-140225000D01*
X106855302Y-140321673D01*
X106676673Y-140500301D01*
X106580000Y-140733690D01*
X106537995Y-140733690D01*
X106594838Y-140596799D01*
X106595162Y-140224833D01*
X106491792Y-139974658D01*
X106611167Y-139974762D01*
X106954943Y-139832717D01*
X107218192Y-139569927D01*
X107360838Y-139226399D01*
X107361162Y-138854433D01*
X107219117Y-138510657D01*
X106956327Y-138247408D01*
X106612799Y-138104762D01*
X106401820Y-138104578D01*
X105378768Y-137081526D01*
X105333123Y-136971057D01*
X105070333Y-136707808D01*
X104726805Y-136565162D01*
X104354839Y-136564838D01*
X104011063Y-136706883D01*
X103747814Y-136969673D01*
X103605168Y-137313201D01*
X103604844Y-137685167D01*
X103746889Y-138028943D01*
X104009679Y-138292192D01*
X104121319Y-138338549D01*
X105321121Y-139538351D01*
X105306573Y-139544362D01*
X105130327Y-139367808D01*
X105018687Y-139321451D01*
X102979000Y-137281764D01*
X102979000Y-134441204D01*
X104991442Y-132428762D01*
X105101911Y-132383117D01*
X105365160Y-132120327D01*
X105507806Y-131776799D01*
X105508130Y-131404833D01*
X105366085Y-131061057D01*
X105103295Y-130797808D01*
X104759767Y-130655162D01*
X104387801Y-130654838D01*
X104044025Y-130796883D01*
X103780776Y-131059673D01*
X103734419Y-131171313D01*
X101461382Y-133444350D01*
X101268671Y-133732762D01*
X101201000Y-134072968D01*
X101201000Y-134455211D01*
X101176799Y-134445162D01*
X100804833Y-134444838D01*
X100693112Y-134491000D01*
X99017189Y-134491000D01*
X98906799Y-134445162D01*
X98534833Y-134444838D01*
X98191057Y-134586883D01*
X97927808Y-134849673D01*
X97785162Y-135193201D01*
X97784838Y-135565167D01*
X97926883Y-135908943D01*
X98189673Y-136172192D01*
X98533201Y-136314838D01*
X98905167Y-136315162D01*
X99016888Y-136269000D01*
X100692811Y-136269000D01*
X100803201Y-136314838D01*
X101175167Y-136315162D01*
X101201000Y-136304488D01*
X101201000Y-136761000D01*
X98856179Y-136761000D01*
X98745789Y-136715162D01*
X98373823Y-136714838D01*
X98030047Y-136856883D01*
X97766798Y-137119673D01*
X97624152Y-137463201D01*
X97623828Y-137835167D01*
X97760937Y-138166998D01*
X95775801Y-138166998D01*
X95905438Y-137854799D01*
X95905762Y-137482833D01*
X95763717Y-137139057D01*
X95500927Y-136875808D01*
X95389287Y-136829451D01*
X91357418Y-132797582D01*
X91291548Y-132753569D01*
X91069006Y-132604871D01*
X90728800Y-132537200D01*
X88739989Y-132537200D01*
X88629599Y-132491362D01*
X88257633Y-132491038D01*
X87913857Y-132633083D01*
X87650608Y-132895873D01*
X87507962Y-133239401D01*
X87507638Y-133611367D01*
X87649683Y-133955143D01*
X87680974Y-133986489D01*
X87519683Y-134016838D01*
X87303559Y-134155910D01*
X87158569Y-134368110D01*
X87107560Y-134620000D01*
X87107560Y-135459810D01*
X86580813Y-135986557D01*
X86555837Y-136023937D01*
X86493386Y-136086278D01*
X83853293Y-133446185D01*
X83850547Y-133444350D01*
X83606083Y-133281004D01*
X83314478Y-133223000D01*
X78583543Y-133223000D01*
X78563162Y-133114683D01*
X78424090Y-132898559D01*
X78211890Y-132753569D01*
X77960000Y-132702560D01*
X76990000Y-132702560D01*
X76829310Y-132732796D01*
X76680000Y-132702560D01*
X75710000Y-132702560D01*
X75474683Y-132746838D01*
X75258559Y-132885910D01*
X75113569Y-133098110D01*
X75062560Y-133350000D01*
X75062560Y-134379810D01*
X70077495Y-139364875D01*
X70034833Y-139364838D01*
X69691057Y-139506883D01*
X69427808Y-139769673D01*
X69285867Y-140111503D01*
X69184810Y-140212560D01*
X67615000Y-140212560D01*
X67379683Y-140256838D01*
X67163559Y-140395910D01*
X67018569Y-140608110D01*
X66967560Y-140860000D01*
X66967560Y-145340000D01*
X66290000Y-145340000D01*
X66290000Y-143645750D01*
X66131250Y-143487000D01*
X64782000Y-143487000D01*
X64782000Y-143507000D01*
X64528000Y-143507000D01*
X64528000Y-143487000D01*
X64508000Y-143487000D01*
X64508000Y-143233000D01*
X64528000Y-143233000D01*
X64528000Y-140383750D01*
X64782000Y-140383750D01*
X64782000Y-143233000D01*
X66131250Y-143233000D01*
X66290000Y-143074250D01*
X66290000Y-140733690D01*
X66193327Y-140500301D01*
X66014698Y-140321673D01*
X65781309Y-140225000D01*
X64940750Y-140225000D01*
X64782000Y-140383750D01*
X64528000Y-140383750D01*
X64369250Y-140225000D01*
X63575000Y-140225000D01*
X63575000Y-133477000D01*
X69215000Y-133477000D01*
X69261159Y-133468315D01*
X69303553Y-133441035D01*
X69331994Y-133399410D01*
X69342000Y-133350000D01*
X69342000Y-116840000D01*
X69333315Y-116793841D01*
X69306035Y-116751447D01*
X69264410Y-116723006D01*
X69215000Y-116713000D01*
X63575000Y-116713000D01*
X63575000Y-111283750D01*
X81305400Y-111283750D01*
X81305400Y-112140310D01*
X81402073Y-112373699D01*
X81580702Y-112552327D01*
X81814091Y-112649000D01*
X82518250Y-112649000D01*
X82677000Y-112490250D01*
X82677000Y-111125000D01*
X81464150Y-111125000D01*
X81305400Y-111283750D01*
X63575000Y-111283750D01*
X63575000Y-109855690D01*
X81305400Y-109855690D01*
X81305400Y-110712250D01*
X81464150Y-110871000D01*
X82677000Y-110871000D01*
X82677000Y-109505750D01*
X82518250Y-109347000D01*
X81814091Y-109347000D01*
X81580702Y-109443673D01*
X81402073Y-109622301D01*
X81305400Y-109855690D01*
X63575000Y-109855690D01*
X63575000Y-109295000D01*
X109145000Y-109295000D01*
X109145000Y-115709333D01*
G36*
X108077000Y-131191000D02*
X108097000Y-131191000D01*
X108097000Y-131445000D01*
X108077000Y-131445000D01*
X108077000Y-131465000D01*
X107823000Y-131465000D01*
X107823000Y-131445000D01*
X107803000Y-131445000D01*
X107803000Y-131191000D01*
X107823000Y-131191000D01*
X107823000Y-131171000D01*
X108077000Y-131171000D01*
X108077000Y-131191000D01*
X108077000Y-131191000D01*
G37*
X108077000Y-131191000D02*
X108097000Y-131191000D01*
X108097000Y-131445000D01*
X108077000Y-131445000D01*
X108077000Y-131465000D01*
X107823000Y-131465000D01*
X107823000Y-131445000D01*
X107803000Y-131445000D01*
X107803000Y-131191000D01*
X107823000Y-131191000D01*
X107823000Y-131171000D01*
X108077000Y-131171000D01*
X108077000Y-131191000D01*
G36*
X106508321Y-121301951D02*
X106435907Y-121666000D01*
X106548946Y-122234285D01*
X106870853Y-122716054D01*
X106914777Y-122745403D01*
X106740302Y-122817673D01*
X106561673Y-122996301D01*
X106465000Y-123229690D01*
X106465000Y-123920250D01*
X106623750Y-124079000D01*
X107823000Y-124079000D01*
X107823000Y-124059000D01*
X108077000Y-124059000D01*
X108077000Y-124079000D01*
X108097000Y-124079000D01*
X108097000Y-124333000D01*
X108077000Y-124333000D01*
X108077000Y-125532250D01*
X108235750Y-125691000D01*
X108926309Y-125691000D01*
X109145000Y-125600415D01*
X109145000Y-127901333D01*
X109029147Y-127727946D01*
X108547378Y-127406039D01*
X107979093Y-127293000D01*
X107920907Y-127293000D01*
X107352622Y-127406039D01*
X106870853Y-127727946D01*
X106678382Y-128016000D01*
X105400176Y-128016000D01*
X105507806Y-127756799D01*
X105508130Y-127384833D01*
X105489000Y-127338535D01*
X105489000Y-124491750D01*
X106465000Y-124491750D01*
X106465000Y-125182310D01*
X106561673Y-125415699D01*
X106740302Y-125594327D01*
X106973691Y-125691000D01*
X107664250Y-125691000D01*
X107823000Y-125532250D01*
X107823000Y-124333000D01*
X106623750Y-124333000D01*
X106465000Y-124491750D01*
X105489000Y-124491750D01*
X105489000Y-122137189D01*
X105534838Y-122026799D01*
X105535162Y-121654833D01*
X105489000Y-121543112D01*
X105489000Y-120282630D01*
X106508321Y-121301951D01*
X106508321Y-121301951D01*
G37*
X106508321Y-121301951D02*
X106435907Y-121666000D01*
X106548946Y-122234285D01*
X106870853Y-122716054D01*
X106914777Y-122745403D01*
X106740302Y-122817673D01*
X106561673Y-122996301D01*
X106465000Y-123229690D01*
X106465000Y-123920250D01*
X106623750Y-124079000D01*
X107823000Y-124079000D01*
X107823000Y-124059000D01*
X108077000Y-124059000D01*
X108077000Y-124079000D01*
X108097000Y-124079000D01*
X108097000Y-124333000D01*
X108077000Y-124333000D01*
X108077000Y-125532250D01*
X108235750Y-125691000D01*
X108926309Y-125691000D01*
X109145000Y-125600415D01*
X109145000Y-127901333D01*
X109029147Y-127727946D01*
X108547378Y-127406039D01*
X107979093Y-127293000D01*
X107920907Y-127293000D01*
X107352622Y-127406039D01*
X106870853Y-127727946D01*
X106678382Y-128016000D01*
X105400176Y-128016000D01*
X105507806Y-127756799D01*
X105508130Y-127384833D01*
X105489000Y-127338535D01*
X105489000Y-124491750D01*
X106465000Y-124491750D01*
X106465000Y-125182310D01*
X106561673Y-125415699D01*
X106740302Y-125594327D01*
X106973691Y-125691000D01*
X107664250Y-125691000D01*
X107823000Y-125532250D01*
X107823000Y-124333000D01*
X106623750Y-124333000D01*
X106465000Y-124491750D01*
X105489000Y-124491750D01*
X105489000Y-122137189D01*
X105534838Y-122026799D01*
X105535162Y-121654833D01*
X105489000Y-121543112D01*
X105489000Y-120282630D01*
X106508321Y-121301951D01*
M02*
