M48
;DRILL file {KiCad 4.0.6} date Sat Aug  5 17:50:14 2017
;FORMAT={2:4/ absolute / inch / suppress leading zeros}
FMAT,2
INCH,TZ
T1C0.012
T2C0.039
T3C0.040
%
G90
G05
M72
T1
X25457Y-54941
X27470Y-51230
X27646Y-55236
X30790Y-48610
X31008Y-54965
X32330Y-47090
X32380Y-47520
X32850Y-50300
X32890Y-54610
X33130Y-49330
X33872Y-54483
X33878Y-55819
X34197Y-55535
X34299Y-53851
X34820Y-52530
X35630Y-55516
X35900Y-51320
X37390Y-54200
X38559Y-45311
X38756Y-47287
X38803Y-54193
X38819Y-54965
X38866Y-53299
X39760Y-53299
X41157Y-54134
X41170Y-50224
X41170Y-51807
X41181Y-47071
X41181Y-47969
X41181Y-55181
X41185Y-45866
X41598Y-55280
X41900Y-54740
X42402Y-52496
T2
X42500Y-45900
X42500Y-46900
X42500Y-47900
X42500Y-48900
X42500Y-50700
X42500Y-51700
T3
X32600Y-43700
X33600Y-43700
X34600Y-43700
X35600Y-43700
T0
M30
